<svg width="216" height="184" viewBox="0 0 216 184" fill="none" xmlns="http://www.w3.org/2000/svg">
<circle cx="4" cy="180" r="4" fill="#6A35F2" fill-opacity="0.4"/>
<circle cx="4" cy="158" r="4" fill="#6A35F2" fill-opacity="0.4"/>
<circle cx="4" cy="114" r="4" fill="#6A35F2" fill-opacity="0.4"/>
<circle cx="4" cy="136" r="4" fill="#6A35F2" fill-opacity="0.4"/>
<circle cx="4" cy="92" r="4" fill="#6A35F2" fill-opacity="0.4"/>
<circle cx="4" cy="70" r="4" fill="#6A35F2" fill-opacity="0.4"/>
<circle cx="4" cy="48" r="4" fill="#6A35F2" fill-opacity="0.4"/>
<circle cx="4" cy="26" r="4" fill="#6A35F2" fill-opacity="0.4"/>
<circle cx="4" cy="4" r="4" fill="#6A35F2" fill-opacity="0.4"/>
<circle cx="30" cy="4" r="4" fill="#6A35F2" fill-opacity="0.4"/>
<circle cx="30" cy="26" r="4" fill="#6A35F2" fill-opacity="0.4"/>
<circle cx="30" cy="180" r="4" fill="#6A35F2" fill-opacity="0.4"/>
<circle cx="30" cy="136" r="4" fill="#6A35F2" fill-opacity="0.4"/>
<circle cx="30" cy="158" r="4" fill="#6A35F2" fill-opacity="0.4"/>
<circle cx="30" cy="114" r="4" fill="#6A35F2" fill-opacity="0.4"/>
<circle cx="30" cy="92" r="4" fill="#6A35F2" fill-opacity="0.4"/>
<circle cx="30" cy="70" r="4" fill="#6A35F2" fill-opacity="0.4"/>
<circle cx="30" cy="48" r="4" fill="#6A35F2" fill-opacity="0.4"/>
<circle cx="56" cy="4" r="4" fill="#6A35F2" fill-opacity="0.4"/>
<circle cx="56" cy="26" r="4" fill="#6A35F2" fill-opacity="0.4"/>
<circle cx="56" cy="180" r="4" fill="#6A35F2" fill-opacity="0.4"/>
<circle cx="56" cy="136" r="4" fill="#6A35F2" fill-opacity="0.4"/>
<circle cx="56" cy="158" r="4" fill="#6A35F2" fill-opacity="0.4"/>
<circle cx="56" cy="114" r="4" fill="#6A35F2" fill-opacity="0.4"/>
<circle cx="56" cy="92" r="4" fill="#6A35F2" fill-opacity="0.4"/>
<circle cx="56" cy="70" r="4" fill="#6A35F2" fill-opacity="0.4"/>
<circle cx="56" cy="48" r="4" fill="#6A35F2" fill-opacity="0.4"/>
<circle cx="82" cy="4" r="4" fill="#6A35F2" fill-opacity="0.4"/>
<circle cx="82" cy="26" r="4" fill="#6A35F2" fill-opacity="0.4"/>
<circle cx="82" cy="180" r="4" fill="#6A35F2" fill-opacity="0.4"/>
<circle cx="82" cy="136" r="4" fill="#6A35F2" fill-opacity="0.4"/>
<circle cx="82" cy="158" r="4" fill="#6A35F2" fill-opacity="0.4"/>
<circle cx="82" cy="114" r="4" fill="#6A35F2" fill-opacity="0.4"/>
<circle cx="82" cy="92" r="4" fill="#6A35F2" fill-opacity="0.4"/>
<circle cx="82" cy="70" r="4" fill="#6A35F2" fill-opacity="0.4"/>
<circle cx="82" cy="48" r="4" fill="#6A35F2" fill-opacity="0.4"/>
<circle cx="108" cy="4" r="4" fill="#6A35F2" fill-opacity="0.4"/>
<circle cx="108" cy="26" r="4" fill="#6A35F2" fill-opacity="0.4"/>
<circle cx="108" cy="180" r="4" fill="#6A35F2" fill-opacity="0.4"/>
<circle cx="108" cy="136" r="4" fill="#6A35F2" fill-opacity="0.4"/>
<circle cx="108" cy="158" r="4" fill="#6A35F2" fill-opacity="0.4"/>
<circle cx="108" cy="114" r="4" fill="#6A35F2" fill-opacity="0.4"/>
<circle cx="108" cy="92" r="4" fill="#6A35F2" fill-opacity="0.4"/>
<circle cx="108" cy="70" r="4" fill="#6A35F2" fill-opacity="0.4"/>
<circle cx="108" cy="48" r="4" fill="#6A35F2" fill-opacity="0.4"/>
<circle cx="134" cy="4" r="4" fill="#6A35F2" fill-opacity="0.4"/>
<circle cx="134" cy="26" r="4" fill="#6A35F2" fill-opacity="0.4"/>
<circle cx="134" cy="180" r="4" fill="#6A35F2" fill-opacity="0.4"/>
<circle cx="134" cy="136" r="4" fill="#6A35F2" fill-opacity="0.4"/>
<circle cx="134" cy="158" r="4" fill="#6A35F2" fill-opacity="0.4"/>
<circle cx="134" cy="114" r="4" fill="#6A35F2" fill-opacity="0.4"/>
<circle cx="134" cy="92" r="4" fill="#6A35F2" fill-opacity="0.4"/>
<circle cx="134" cy="70" r="4" fill="#6A35F2" fill-opacity="0.4"/>
<circle cx="134" cy="48" r="4" fill="#6A35F2" fill-opacity="0.4"/>
<circle cx="160" cy="4" r="4" fill="#6A35F2" fill-opacity="0.4"/>
<circle cx="160" cy="26" r="4" fill="#6A35F2" fill-opacity="0.4"/>
<circle cx="160" cy="180" r="4" fill="#6A35F2" fill-opacity="0.4"/>
<circle cx="160" cy="136" r="4" fill="#6A35F2" fill-opacity="0.4"/>
<circle cx="160" cy="158" r="4" fill="#6A35F2" fill-opacity="0.4"/>
<circle cx="160" cy="114" r="4" fill="#6A35F2" fill-opacity="0.4"/>
<circle cx="160" cy="92" r="4" fill="#6A35F2" fill-opacity="0.4"/>
<circle cx="160" cy="70" r="4" fill="#6A35F2" fill-opacity="0.4"/>
<circle cx="160" cy="48" r="4" fill="#6A35F2" fill-opacity="0.4"/>
<circle cx="186" cy="4" r="4" fill="#6A35F2" fill-opacity="0.4"/>
<circle cx="186" cy="26" r="4" fill="#6A35F2" fill-opacity="0.4"/>
<circle cx="186" cy="180" r="4" fill="#6A35F2" fill-opacity="0.4"/>
<circle cx="186" cy="136" r="4" fill="#6A35F2" fill-opacity="0.4"/>
<circle cx="186" cy="158" r="4" fill="#6A35F2" fill-opacity="0.4"/>
<circle cx="186" cy="114" r="4" fill="#6A35F2" fill-opacity="0.4"/>
<circle cx="186" cy="92" r="4" fill="#6A35F2" fill-opacity="0.4"/>
<circle cx="186" cy="70" r="4" fill="#6A35F2" fill-opacity="0.4"/>
<circle cx="186" cy="48" r="4" fill="#6A35F2" fill-opacity="0.4"/>
<circle cx="212" cy="4" r="4" fill="#6A35F2" fill-opacity="0.4"/>
<circle cx="212" cy="26" r="4" fill="#6A35F2" fill-opacity="0.4"/>
<circle cx="212" cy="180" r="4" fill="#6A35F2" fill-opacity="0.4"/>
<circle cx="212" cy="136" r="4" fill="#6A35F2" fill-opacity="0.4"/>
<circle cx="212" cy="158" r="4" fill="#6A35F2" fill-opacity="0.4"/>
<circle cx="212" cy="114" r="4" fill="#6A35F2" fill-opacity="0.4"/>
<circle cx="212" cy="92" r="4" fill="#6A35F2" fill-opacity="0.4"/>
<circle cx="212" cy="70" r="4" fill="#6A35F2" fill-opacity="0.4"/>
<circle cx="212" cy="48" r="4" fill="#6A35F2" fill-opacity="0.4"/>
</svg>
